<?xml version="1.0" standalone="no"?><!DOCTYPE svg PUBLIC "-//W3C//DTD SVG 1.1//EN" "http://www.w3.org/Graphics/SVG/1.1/DTD/svg11.dtd"><svg t="1630581984233" class="icon" viewBox="0 0 1024 1024" version="1.1" xmlns="http://www.w3.org/2000/svg" p-id="22012" xmlns:xlink="http://www.w3.org/1999/xlink" width="200" height="200"><defs><style type="text/css"></style></defs><path d="M91.1 465.4h839.5V798H91.1V465.4z" fill="#B0FA90" p-id="22013"></path><path d="M859.3 465.4V703c0 13.2-10.6 23.8-23.8 23.8H91.1V798h839.5V465.4h-71.3z" fill="#95E55F" p-id="22014"></path><path d="M423.8 465.4H598V798H423.8V465.4z" fill="#FFFFFF" p-id="22015"></path><path d="M423.7 726.8V798H598v-71.3H423.7z" fill="#E5F0F1" p-id="22016"></path><path d="M833 206.1c-9.5 0.1-18.1 5.9-21.7 14.8-11.7 27.5-47.6 86.2-91.8 134.9s-97.4 85.9-137.4 85.9h-491c-13.1 0-23.8 10.6-23.8 23.8V608c-0.5 32.1 48 32.1 47.5 0V489.2H400v285.1H114.9v-63.4h150.5c32.1 0.5 32.1-48 0-47.5H95c-14.6-2.4-27.9 9-27.7 23.8v110.9c0 13.1 10.6 23.8 23.8 23.8h839.5c13.1 0 23.8-10.6 23.8-23.8V671.3c0.2-13.4-10.7-24.3-24.1-24.1-13.1 0.2-23.6 11-23.4 24.1v103H621.7V544.6c0.5-32.1-48-32.1-47.5 0v229.7H447.5V489.2h151.7c118-6.1 225.2-51 324.6-117.8 20.2-13.2 10.2-44.5-13.8-43.7-4.5 0.2-8.9 1.6-12.7 4.2-55.5 37.3-112.4 66.4-171.7 85.5 10-9.6 19.8-19.5 29.1-29.7 48.1-53 84.9-111.9 100.3-148.2 7.1-15.8-4.7-33.6-22-33.4z m97.3 235.2c-13.1 0.2-23.6 11-23.4 24.1v103H756.4c-32.1-0.5-32.1 48 0 47.5h170.3c14.6 2.4 27.9-9 27.7-23.8V465.4c0.2-13.4-10.7-24.3-24.1-24.1z" fill="#444852" p-id="22017"></path></svg>