<?xml version="1.0" standalone="no"?><!DOCTYPE svg PUBLIC "-//W3C//DTD SVG 1.1//EN" "http://www.w3.org/Graphics/SVG/1.1/DTD/svg11.dtd"><svg t="1630581061890" class="icon" viewBox="0 0 1024 1024" version="1.1" xmlns="http://www.w3.org/2000/svg" p-id="3015" xmlns:xlink="http://www.w3.org/1999/xlink" width="200" height="200"><defs><style type="text/css"></style></defs><path d="M874.011741 138.270167v746.665215c0 29.35461-12.003532 57.457666-33.336825 78.22207A115.455776 115.455776 0 0 1 760.234184 995.555611h-511.999004c-30.179497 0-59.135885-11.6622-80.469177-32.398159a109.084232 109.084232 0 0 1-33.30838-78.22207V138.270167h739.554118z m-85.333168 82.972283h-568.887783V884.906937c0 7.338652 2.986661 14.364417 8.305762 19.56974 5.347545 5.176879 12.57242 8.078207 20.138628 8.078206h511.999004c7.537763 0 14.791082-2.901328 20.110183-8.078206a27.278169 27.278169 0 0 0 8.334206-19.56974V221.24245z m-383.999253 580.720648c-23.580399 0-42.666584-18.545742-42.666584-41.471919V428.658935c0-22.897733 19.086185-41.471919 42.666584-41.471919 23.551954 0 42.666584 18.574186 42.666583 41.471919v331.860688c0 22.926178-19.114629 41.471919-42.666583 41.47192z m199.110724 0c-23.580399 0-42.666584-18.545742-42.666584-41.471919V428.658935c0-22.897733 19.086185-41.471919 42.666584-41.471919 23.551954 0 42.666584 18.574186 42.666583 41.471919v331.860688c0 22.926178-19.114629 41.471919-42.666583 41.47192z m355.554864-580.720648h-910.220452c-23.580399 0-42.666584-18.574186-42.666584-41.500364 0-22.897733 19.086185-41.471919 42.666584-41.471919h910.220452c23.551954 0 42.666584 18.574186 42.666584 41.471919 0 22.926178-19.114629 41.500364-42.666584 41.500364z m-331.377133-138.268176l7.111097 55.295893h-261.68838l7.111097-55.295893h247.466186zM652.998837 0.001991h-297.52831c-28.842611-0.227555-53.304785 20.565293-56.888779 48.383906l-21.902179 172.856553h455.110226l-22.186624-172.856553c-3.612437-27.818613-28.074612-48.611461-56.888778-48.355462h0.284444z" fill="#000000" p-id="3016"></path></svg>