<?xml version="1.0" standalone="no"?><!DOCTYPE svg PUBLIC "-//W3C//DTD SVG 1.1//EN" "http://www.w3.org/Graphics/SVG/1.1/DTD/svg11.dtd"><svg t="1630581658409" class="icon" viewBox="0 0 1024 1024" version="1.1" xmlns="http://www.w3.org/2000/svg" p-id="6075" xmlns:xlink="http://www.w3.org/1999/xlink" width="200" height="200"><defs><style type="text/css"></style></defs><path d="M163.83 525.33l370.18-370.18c13.02-13.02 34.12-13.02 47.13 0 13.02 13.02 13.02 34.12 0 47.13L210.97 572.46c-13.02 13.02-34.12 13.02-47.13 0-13.02-13.01-13.02-34.11-0.01-47.13z" fill="#007AFF" p-id="6076"></path><path d="M904.75 871.43l49.42 49.42c8.86 8.86 8.86 23.22 0 32.07-8.86 8.86-23.22 8.86-32.07 0l-49.42-49.42c-8.86-8.86-8.86-23.22 0-32.07 8.86-8.86 23.21-8.86 32.07 0z" fill="#8A8A8A" p-id="6077"></path><path d="M906.63 733.65L655.9 462.53c9.99-30.28 15.43-62.2 15.43-95.01 0-80.82-31.47-156.8-88.62-213.94-117.97-117.95-309.92-117.97-427.85 0C97.7 210.72 66.24 286.7 66.24 367.52c0 80.81 31.47 156.79 88.62 213.94 58.99 58.99 136.44 88.48 213.93 88.47 32.07 0 64.07-5.35 94.84-15.46L734.9 905.36c23.44 21.68 52.99 32.45 82.52 32.45 31.1 0 62.13-11.96 85.9-35.73a121.182 121.182 0 0 0 3.31-168.43zM415.22 609.37c-77.51 14.76-160.78-7.76-220.66-67.62-46.53-46.54-72.17-108.42-72.17-174.22 0-65.81 25.63-127.69 72.17-174.22 48.03-48.02 111.11-72.04 174.21-72.04s126.18 24.02 174.21 72.04c46.53 46.53 72.17 108.41 72.17 174.22 0 15.79-1.56 31.33-4.45 46.52-4.01 21.09-10.92 41.35-20.2 60.53-11.88 24.55-27.67 47.32-47.52 67.18-20.11 20.11-42.96 35.75-67.24 47.44-19.41 9.33-39.71 16.21-60.52 20.17zM863.6 862.36a65.152 65.152 0 0 1-90.56 1.76L519.39 629.55c22.61-12.98 44.02-28.79 63.31-48.09 19.1-19.1 35.05-40.44 48.19-63.22l234.48 253.54a65.158 65.158 0 0 1-1.77 90.58z" fill="#8A8A8A" p-id="6078"></path></svg>