<?xml version="1.0" standalone="no"?><!DOCTYPE svg PUBLIC "-//W3C//DTD SVG 1.1//EN" "http://www.w3.org/Graphics/SVG/1.1/DTD/svg11.dtd"><svg t="1630581903716" class="icon" viewBox="0 0 1035 1024" version="1.1" xmlns="http://www.w3.org/2000/svg" p-id="19064" xmlns:xlink="http://www.w3.org/1999/xlink" width="202.1484375" height="200"><defs><style type="text/css"></style></defs><path d="M1008.237474 407.829731l-105.945549-94.669445 0.214219 0 0-45.388523 0-158.860591c0-37.602208-30.481337-68.088103-68.083545-68.088103-37.596131 0-68.083545 30.485895-68.083545 68.088103l0 82.7598-184.735468-165.085086c-35.453944-35.447867-92.931387-35.447867-128.385331 0L26.585885 407.829731c-35.447867 35.453944-35.447867 92.92531 0 128.379254l104.307764 94.670964 0 302.343019c0 50.136277 40.646847 90.777047 90.777047 90.777047l590.062958 0c50.1302 0 90.777047-40.64077 90.777047-90.777047L902.510701 630.879949l105.726773-94.670964C1043.685341 500.761118 1043.685341 443.283675 1008.237474 407.829731zM675.562007 426.630834c25.068138 0 45.388523 20.320385 45.388523 45.388523s-20.320385 45.388523-45.388523 45.388523-45.388523-20.320385-45.388523-45.388523S650.493868 426.630834 675.562007 426.630834zM380.537365 426.630834c25.068138 0 45.388523 20.320385 45.388523 45.388523S405.605503 517.407881 380.537365 517.407881c-25.074216 0-45.3946-20.320385-45.3946-45.388523C335.148841 446.951219 355.469226 426.630834 380.537365 426.630834zM784.635756 678.042993c-22.374453 127.874853-133.643563 225.174174-267.932821 225.174174-133.976286 0-245.043332-96.849613-267.773297-224.296029-0.214219-0.729255-0.475535-3.050716-0.475535-3.252781 0-8.814869 10.20805-15.958529 22.801371-15.958529 12.201347 0 22.160234 6.706107 22.770985 15.139636 0.024308 0.273471 0.291702 1.419009 0.291702 1.419009 21.025331 103.590664 112.592404 181.560171 222.384773 181.560171 109.749829 0 201.292594-77.917851 222.360465-181.441667-0.018231-0.255239 2.178649-10.718528 10.480001-14.237183 3.620447-1.531435 7.845568-2.546315 12.421642-2.546315C774.648002 659.603478 786.167191 664.583681 784.635756 678.042993z" p-id="19065" fill="#1296db"></path></svg>