<?xml version="1.0" standalone="no"?><!DOCTYPE svg PUBLIC "-//W3C//DTD SVG 1.1//EN" "http://www.w3.org/Graphics/SVG/1.1/DTD/svg11.dtd"><svg t="1630581510632" class="icon" viewBox="0 0 1024 1024" version="1.1" xmlns="http://www.w3.org/2000/svg" p-id="4780" xmlns:xlink="http://www.w3.org/1999/xlink" width="200" height="200"><defs><style type="text/css"></style></defs><path d="M491.52 583.68h-69.632v-22.528H491.52v-24.576h-69.632v-22.528h59.392l-83.968-131.072h47.104l36.864 67.584c12.288 24.576 18.432 34.816 28.672 55.296h2.048c10.24-20.48 16.384-30.72 28.672-55.296l36.864-67.584h47.104l-83.968 131.072h59.392v22.528H532.48v24.576h69.632v22.528H532.48v57.344h-40.96v-57.344z" fill="#15B7FF" p-id="4781"></path><path d="M751.616 765.952H272.384c-45.056 0-81.92-36.864-81.92-81.92V573.44c0-6.144 2.048-10.24 6.144-14.336l47.104-47.104-47.104-47.104c-4.096-4.096-6.144-8.192-6.144-14.336v-110.592c0-45.056 36.864-81.92 81.92-81.92h479.232c45.056 0 81.92 36.864 81.92 81.92V450.56c0 6.144-2.048 10.24-6.144 14.336L780.288 512l47.104 47.104c4.096 4.096 6.144 8.192 6.144 14.336v110.592c0 45.056-36.864 81.92-81.92 81.92z m-520.192-184.32v102.4c0 22.528 18.432 40.96 40.96 40.96h479.232c22.528 0 40.96-18.432 40.96-40.96v-102.4L737.28 526.336c-8.192-8.192-8.192-20.48 0-28.672l55.296-55.296v-102.4c0-22.528-18.432-40.96-40.96-40.96H272.384c-22.528 0-40.96 18.432-40.96 40.96v102.4l55.296 55.296c8.192 8.192 8.192 20.48 0 28.672l-55.296 55.296z" fill="#666666" p-id="4782"></path></svg>